{"title":"Fingerprints.2006.DVDRip.AC3.X264-BARC0DE","uid":5695196,"size":1551712074,"categoryP":"video","categoryS":"movies","magnet":"?xt=urn:btih:d5a69b69db57206759e7b5d3d2402b7470a6d2d9&amp;dn=Fingerprints.2006.DVDRip.AC3.X264-BARC0DE&amp;tr=udp%3A%2F%2Ftracker.openbittorrent.com%3A80&amp;tr=udp%3A%2F%2Fopen.demonii.com%3A1337&amp;tr=udp%3A%2F%2Ftracker.coppersurfer.tk%3A6969&amp;tr=udp%3A%2F%2Fexodus.desync.com%3A6969","seeders":0,"leechers":1,"uploader":"TvTeam","files":4,"time":1279279705,"description":". \n  &lt;a href=&quot;\nhttp://www.torrentday.com/&quot; rel=&quot;nofollow&quot; target=&quot;_NEW&quot;&gt;\nhttp://www.torrentday.com/&lt;/a&gt;        :     The Hottest Private Tracker On The Net!!!\n\n\n               www . TorrentDay . Com \n(((((((((((((= Enjoy No RAR releases =))))))))))))))))))))\n\n\n...................................NFO:....................................\n\n.*******************************************************************************\n                  Fingerprints.2006.DVDRip.AC3.X264-BARC0DE\n*******************************************************************************\n\n-------------------------------------------------------------------------------\n                              General Information\n-------------------------------------------------------------------------------\nType.................: Movie\nName.................: Fingerprints\nMovie Information....: http://www.imdb.com/title/tt0790662/\nGenre................: Horror | Mystery | Thriller\n\n-------------------------------------------------------------------------------\n                                    PLOT\n-------------------------------------------------------------------------------\nFresh out of rehab, a young woman moves back in with her parents and sister, and \nsoon becomes involved in a mystery that has left people in her town paralyzed.\n\n-------------------------------------------------------------------------------\n                                    CAST\n-------------------------------------------------------------------------------\nLeah Pipes\t... \tMelanie\nKristin Cavallari\t... \tCrystal\nJosh Henderson\t... \tPenn\nAndrew Lawrence\t... \tMitch\nLou Diamond Phillips\t... \tDoug\nSally Kirkland\t... \tMary\nGeoffrey Lewis\t... \tKeeler\nGinger Gilmartin\t... \tBethany\nGlen Jensen\t... \tKowalski\nMorgan Brown\t... \tReynolds (as Morgan Brown III)\nSydnee Harlan\t... \tJulie\nAshley Wyatt\t... \tCarolyn\nBen Hall\t... \tMr. Pearl\nDylan Cox\t... \tShawn\nGracie Veneklasen\t... \tLittle Mary\n\n-------------------------------------------------------------------------------\n                                    MEDiA iNFO\n-------------------------------------------------------------------------------\n\nGeneral\nComplete name                    : Fingerprints.2006.DVDRip.AC3.X264-BARC0DE.mkv\nFormat                           : Matroska\nFile size                        : 1.45 GiB\nDuration                         : 1h 31mn\nOverall bit rate                 : 2 257 Kbps\n\n\nVideo\nID                               : 1\nFormat                           : AVC\nFormat/Info                      : Advanced Video Codec\nFormat profile                   : &lt;a class=&quot;__cf_email__&quot; href=&quot;/cdn-cgi/l/email-protection&quot; data-cfemail=&quot;5a12333d321a1669746a&quot;&gt;[email&amp;#160;protected]&lt;/a&gt;&lt;script cf-hash='f9e31' type=&quot;text/javascript&quot;&gt;\n/* &lt;![CDATA[ */!function(){try{var t=&quot;currentScript&quot;in document?document.currentScript:function(){for(var t=document.getElementsByTagName(&quot;script&quot;),e=t.length;e--;)if(t[e].getAttribute(&quot;cf-hash&quot;))return t[e]}();if(t&amp;&amp;t.previousSibling){var e,r,n,i,c=t.previousSibling,a=c.getAttribute(&quot;data-cfemail&quot;);if(a){for(e=&quot;&quot;,r=parseInt(a.substr(0,2),16),n=2;a.length-n;n+=2)i=parseInt(a.substr(n,2),16)^r,e+=String.fromCharCode(i);e=document.createTextNode(e),c.parentNode.replaceChild(e,c)}}}catch(u){}}();/* ]]&gt; */&lt;/script&gt;\nFormat settings, CABAC           : Yes\nFormat settings, ReFrames        : 3 frames\nMuxing mode                      : Container profile=&lt;a class=&quot;__cf_email__&quot; href=&quot;/cdn-cgi/l/email-protection&quot; data-cfemail=&quot;1e4b7075707169705e2d302e&quot;&gt;[email&amp;#160;protected]&lt;/a&gt;&lt;script cf-hash='f9e31' type=&quot;text/javascript&quot;&gt;\n/* &lt;![CDATA[ */!function(){try{var t=&quot;currentScript&quot;in document?document.currentScript:function(){for(var t=document.getElementsByTagName(&quot;script&quot;),e=t.length;e--;)if(t[e].getAttribute(&quot;cf-hash&quot;))return t[e]}();if(t&amp;&amp;t.previousSibling){var e,r,n,i,c=t.previousSibling,a=c.getAttribute(&quot;data-cfemail&quot;);if(a){for(e=&quot;&quot;,r=parseInt(a.substr(0,2),16),n=2;a.length-n;n+=2)i=parseInt(a.substr(n,2),16)^r,e+=String.fromCharCode(i);e=document.createTextNode(e),c.parentNode.replaceChild(e,c)}}}catch(u){}}();/* ]]&gt; */&lt;/script&gt;\nCodec ID                         : V_MPEG4/ISO/AVC\nDuration                         : 1h 31mn\nBit rate                         : 1 831 Kbps\nWidth                            : 720 pixels\nHeight                           : 400 pixels\nDisplay aspect ratio             : 16:9\nFrame rate                       : 25.000 fps\nColor space                      : YUV\nChroma subsampling               : 4:2:0\nBit depth                        : 8 bits\nScan type                        : Progressive\nBits/(Pixel*Frame)               : 0.254\nStream size                      : 1.13 GiB (78%)\nWriting library                  : x264 core 79\n\n\nAudio\nID                               : 2\nFormat                           : AC-3\nFormat/Info                      : Audio Coding 3\nMode extension                   : CM (complete main)\nCodec ID                         : A_AC3\nDuration                         : 1h 31mn\nBit rate mode                    : Constant\nBit rate                         : 448 Kbps\nChannel(s)                       : 6 channels\nChannel positions                : Front: L C R, Side: L R, LFE\nSampling rate                    : 48.0 KHz\nStream size                      : 294 MiB (20%)\nLanguage                         : English","torrent":{"xt":"urn:btih:d5a69b69db57206759e7b5d3d2402b7470a6d2d9","amp;dn":"Fingerprints.2006.DVDRip.AC3.X264-BARC0DE","amp;tr":["udp%3A%2F%2Ftracker.openbittorrent.com%3A80","udp%3A%2F%2Fopen.demonii.com%3A1337","udp%3A%2F%2Ftracker.coppersurfer.tk%3A6969","udp%3A%2F%2Fexodus.desync.com%3A6969"],"infoHash":"d5a69b69db57206759e7b5d3d2402b7470a6d2d9","infoHashBuffer":{"type":"Buffer","data":[213,166,155,105,219,87,32,103,89,231,181,211,210,64,43,116,112,166,210,217]},"announce":[],"urlList":[]}}